HIERARCHY
ROOT Hips
{
	OFFSET -3.958830 18.904000 13.208200
	CHANNELS 6 Xposition Yposition Zposition Zrotation Yrotation Xrotation 
	JOINT LHipJoint
	{
		OFFSET 0.000000 0.000000 0.000000
		CHANNELS 3 Zrotation Yrotation Xrotation
		JOINT LeftUpLeg
		{
			OFFSET 1.800000 -1.400000 0.085000
			CHANNELS 3 Zrotation Yrotation Xrotation
			JOINT LeftLeg
			{
				OFFSET 2.215000 -6.000000 0.000000
				CHANNELS 3 Zrotation Yrotation Xrotation
				JOINT LeftFoot
				{
					OFFSET 2.500000 -6.900000 0.000000
					CHANNELS 3 Zrotation Yrotation Xrotation
					JOINT LeftToeBase
					{
						OFFSET 0.200000 -0.500000 1.950000
						CHANNELS 3 Zrotation Yrotation Xrotation
						End Site
						{
							OFFSET 0.000000 0.000000 0.000000
						}
					}
				}
			}
		}
	}
	JOINT RHipJoint
	{
		OFFSET 0.000000 0.000000 0.000000
		CHANNELS 3 Zrotation Yrotation Xrotation
		JOINT RightUpLeg
		{
			OFFSET -1.800000 -1.400000 0.085000
			CHANNELS 3 Zrotation Yrotation Xrotation
			JOINT RightLeg
			{
				OFFSET -2.215000 -6.000000 0.000000
				CHANNELS 3 Zrotation Yrotation Xrotation
				JOINT RightFoot
				{
					OFFSET -2.500000 -6.900000 0.000000
					CHANNELS 3 Zrotation Yrotation Xrotation
					JOINT RightToeBase
					{
						OFFSET -0.200000 -0.500000 1.950000
						CHANNELS 3 Zrotation Yrotation Xrotation
						End Site
						{
							OFFSET 0.000000 0.000000 0.000000
						}
					}
				}
			}
		}
	}
	JOINT LowerBack
	{
		OFFSET 0.000000 0.000000 0.000000
		CHANNELS 3 Zrotation Yrotation Xrotation
		JOINT Spine
		{
			OFFSET -0.087000 1.940000 -0.288900
			CHANNELS 3 Zrotation Yrotation Xrotation
			JOINT Spine1
			{
				OFFSET 0.000000 1.950000 0.060000
				CHANNELS 3 Zrotation Yrotation Xrotation
				JOINT Neck
				{
					OFFSET 0.000000 0.000000 0.000000
					CHANNELS 3 Zrotation Yrotation Xrotation
					JOINT Neck1
					{
						OFFSET 0.000000 1.600000 0.340000
						CHANNELS 3 Zrotation Yrotation Xrotation
						JOINT Head
						{
							OFFSET 0.000000 1.667000 -0.240000
							CHANNELS 3 Zrotation Yrotation Xrotation
							End Site
							{
								OFFSET 0.000000 0.000000 0.000000
							}
						}
					}
				}
				JOINT LeftShoulder
				{
					OFFSET 0.000000 0.000000 0.000000
					CHANNELS 3 Zrotation Yrotation Xrotation
					JOINT LeftArm
					{
						OFFSET 2.700000 1.550000 -0.730000
						CHANNELS 3 Zrotation Yrotation Xrotation
						JOINT LeftForeArm
						{
							OFFSET 5.450000 0.000000 0.000000
							CHANNELS 3 Zrotation Yrotation Xrotation
							JOINT LeftHand
							{
								OFFSET 3.450000 0.000000 0.000000
								CHANNELS 3 Zrotation Yrotation Xrotation
								JOINT LeftHandIndex1
								{
									OFFSET 0.750000 0.000000 0.000000
									CHANNELS 3 Zrotation Yrotation Xrotation
									End Site
									{
										OFFSET 0.000000 0.000000 0.000000
									}
								}
							}
						}
					}
				}
				JOINT RightShoulder
				{
					OFFSET 0.000000 0.000000 0.000000
					CHANNELS 3 Zrotation Yrotation Xrotation
					JOINT RightArm
					{
						OFFSET -2.700000 1.550000 -0.730000
						CHANNELS 3 Zrotation Yrotation Xrotation
						JOINT RightForeArm
						{
							OFFSET -5.450000 0.000000 0.000000
							CHANNELS 3 Zrotation Yrotation Xrotation
							JOINT RightHand
							{
								OFFSET -3.450000 0.000000 0.000000
								CHANNELS 3 Zrotation Yrotation Xrotation
								JOINT RightHandIndex1
								{
									OFFSET -0.750000 0.000000 0.000000
									CHANNELS 3 Zrotation Yrotation Xrotation
									End Site
									{
										OFFSET 0.000000 0.000000 0.000000
									}
								}
							}
						}
					}
				}
			}
		}
	}
}
MOTION
Frames: 8
Frame Time: 0.016667
0.054620 16.830140 -0.408350 -3.996903 -3.051590 10.345917 -15.107031 14.269420 3.695001 13.382751 -1.625194 -12.458702 -6.317840 4.232864 2.300424 -0.084881 3.902104 3.355659 0.200880 -0.322070 0.474250 17.919008 -10.575552 2.913386 -9.732943 1.342944 -13.661921 5.706373 -3.936265 6.477070 -0.246986 -2.632187 3.419787 -0.449210 0.198130 0.376220 -3.092194 -3.904219 -8.733362 14.821543 -2.212280 12.633449 -4.185568 1.869150 -16.922820 4.966556 -1.550345 -13.078889 -7.730535 3.012240 50.005973 -4.865610 3.507670 1.658440 -3.497340 9.224768 1.598075 -4.280842 26.194640 -1.677292 8.483229 -12.324353 -0.357353 -3.658718 2.981541 0.668000 -0.061890 0.175890 0.128510 -5.647780 -4.397517 9.186694 12.730151 -24.064601 -4.153313 -11.761328 7.571811 0.491096 2.906547 -1.138133 -0.064800 -0.045890 -0.071830 -0.078120 
0.055840 16.829060 -0.407310 -3.927395 -3.037958 10.488122 -15.110068 14.234445 3.700021 13.310186 -1.654551 -12.380458 -6.317130 4.174643 1.994841 -0.080251 3.889098 3.356363 0.210940 -0.309920 0.482810 17.920655 -10.572416 2.919325 -9.814292 1.352600 -13.722249 5.762256 -3.911591 6.293630 -0.248836 -2.633272 3.414401 -0.441090 0.186360 0.378150 -3.090109 -3.851214 -8.737235 14.479980 -2.123592 12.299529 -4.085749 1.783943 -16.979080 4.975903 -1.576089 -12.934293 -7.727361 3.020017 49.772912 -4.915530 3.590400 1.410100 -3.555586 9.575356 1.520563 -5.012086 25.703594 -1.784915 9.023683 -10.569117 -0.373587 -3.687192 2.954025 0.662020 -0.065310 0.179000 0.126970 -5.592237 -4.776258 9.038354 12.996104 -23.749421 -4.166706 -11.379115 6.644915 0.496946 2.927018 -1.126294 -0.057690 -0.054950 -0.078380 -0.079970 
0.059350 16.828430 -0.408020 -4.042068 -2.927383 10.458899 -15.103198 14.210408 3.696864 13.500738 -1.655792 -12.388855 -6.453125 4.206506 2.033508 -0.076894 3.914798 3.345494 0.219940 -0.305380 0.490630 17.933303 -10.571092 2.916105 -9.690489 1.345389 -13.624491 5.741996 -3.909657 6.253532 -0.256680 -2.645105 3.401879 -0.440630 0.185660 0.391260 -3.120471 -3.816294 -8.722778 14.592322 -2.142786 12.066977 -4.231580 1.663487 -16.789162 4.995742 -1.636416 -12.822790 -7.805693 3.008790 49.520385 -5.017150 3.588520 1.282850 -3.855205 9.722858 1.485014 -5.723692 25.451857 -1.859857 9.803996 -9.358279 -0.376906 -3.711572 2.941386 0.662860 -0.065000 0.182510 0.128150 -5.381695 -4.953837 8.950046 13.436744 -23.724022 -4.244370 -11.521355 6.291384 0.504377 2.938172 -1.133345 -0.050510 -0.064880 -0.081670 -0.078150 
0.062340 16.830510 -0.409870 -4.142914 -2.774661 10.230871 -15.096197 14.217561 3.683924 13.672629 -1.627774 -12.413258 -6.511320 4.270683 2.337206 -0.077567 3.918530 3.332846 0.234290 -0.284790 0.497280 17.940762 -10.576918 2.914067 -9.577873 1.294125 -13.337788 5.678264 -3.907563 6.219029 -0.272651 -2.654448 3.388264 -0.432050 0.170160 0.391610 -3.144246 -3.820243 -8.707914 14.708002 -2.228092 12.103214 -4.410681 1.545123 -16.740906 4.991492 -1.779112 -12.736420 -8.143734 3.215926 49.734698 -4.762710 3.542360 0.737770 -4.177858 9.894650 1.419040 -6.274619 25.241846 -1.901528 10.568195 -8.610836 -0.351454 -3.710573 2.937114 0.670700 -0.080480 0.195200 0.127780 -5.065439 -5.088419 8.863500 13.809831 -23.806507 -4.312284 -11.982981 6.323440 0.525291 2.946793 -1.141792 -0.042840 -0.069710 -0.087790 -0.076920 
0.064710 16.831450 -0.411960 -4.228042 -2.667703 10.023377 -15.094406 14.230569 3.678005 13.810062 -1.601310 -12.458356 -6.589738 4.337807 2.605471 -0.081740 3.930298 3.324631 0.234910 -0.275530 0.491280 17.941286 -10.586917 2.905334 -9.479991 1.252020 -13.155856 5.586888 -3.919174 6.354307 -0.275026 -2.660452 3.387886 -0.424760 0.171540 0.382620 -3.149316 -3.830861 -8.696170 14.687869 -2.286320 12.189643 -4.444612 1.467797 -16.812437 4.969826 -1.936254 -12.630835 -8.484174 3.462057 49.856197 -4.461130 3.506800 0.504820 -4.415518 10.108709 1.314817 -6.613748 25.039082 -1.921148 10.906527 -8.167921 -0.331584 -3.714712 2.922518 0.672110 -0.084060 0.195300 0.128630 -4.769711 -5.226531 8.764956 13.729812 -23.748282 -4.262269 -12.041057 6.271445 0.529706 2.946876 -1.136556 -0.046900 -0.060060 -0.086760 -0.074470 
0.066000 16.830850 -0.412280 -4.183019 -2.478741 9.876746 -15.090275 14.244235 3.664842 13.802364 -1.600318 -12.612385 -6.615746 4.397099 2.992356 -0.092485 3.930968 3.322197 0.232440 -0.280380 0.486040 17.940185 -10.609966 2.901847 -9.556041 1.217376 -13.050480 5.568568 -3.951488 6.494553 -0.273089 -2.675488 3.385768 -0.423810 0.178960 0.378890 -3.156740 -3.818504 -8.684470 14.493493 -2.336059 12.161849 -4.440114 1.353884 -16.999817 4.890171 -2.082840 -12.548052 -8.804085 3.710038 50.000116 -3.991570 3.366480 0.667710 -4.462347 10.349152 1.247090 -6.974468 24.897748 -1.955253 11.333332 -8.167103 -0.320867 -3.721521 2.917797 0.673960 -0.082270 0.189060 0.128540 -4.540394 -5.418611 8.662279 13.791696 -23.873431 -4.291233 -12.418268 6.945709 0.518896 2.932897 -1.147788 -0.052620 -0.053970 -0.081520 -0.075390 
0.067390 16.829460 -0.412380 -4.088623 -2.318094 9.755824 -15.088042 14.259782 3.649767 13.695126 -1.599995 -12.779461 -6.589332 4.442974 3.392749 -0.102297 3.913522 3.327620 0.225670 -0.283050 0.475870 17.934691 -10.644390 2.900682 -9.658180 1.190751 -13.028196 5.520188 -3.982222 6.685337 -0.268454 -2.688360 3.386532 -0.423220 0.187240 0.372790 -3.153380 -3.786361 -8.678614 14.157895 -2.335773 12.153648 -4.453230 1.286876 -17.304640 4.858830 -2.054356 -12.429220 -8.728915 3.787489 50.143422 -3.799430 3.368980 0.906850 -4.478575 10.619677 1.142780 -7.025353 24.807617 -1.952625 11.424062 -8.466547 -0.316397 -3.723700 2.916858 0.670800 -0.076820 0.182240 0.128760 -4.441630 -5.741251 8.544481 13.963147 -24.032986 -4.376628 -12.848303 8.023258 0.485090 2.913390 -1.166261 -0.057790 -0.047440 -0.076740 -0.074100 
0.068580 16.826370 -0.410970 -3.945794 -2.136665 9.722971 -15.084084 14.257050 3.644156 13.558879 -1.616976 -12.948959 -6.663505 4.473343 3.636661 -0.103890 3.902831 3.333838 0.222520 -0.285930 0.468670 17.932910 -10.674063 2.900275 -9.801828 1.181748 -13.081942 5.538195 -4.017828 6.840035 -0.268552 -2.701863 3.383827 -0.425130 0.197350 0.376940 -3.159135 -3.734178 -8.676482 13.831621 -2.301754 11.999875 -4.488555 1.214179 -17.569725 4.814037 -2.019433 -12.382069 -8.653372 3.831955 50.323190 -3.662540 3.346620 1.251360 -4.319077 10.813938 1.122929 -7.233427 24.731297 -1.991428 11.548072 -8.728127 -0.313661 -3.727845 2.920004 0.667930 -0.070250 0.181130 0.135170 -4.502151 -5.988395 8.450867 14.339258 -23.824518 -4.462183 -13.415694 8.091028 0.502840 2.917114 -1.174430 -0.057920 -0.044970 -0.076060 -0.069250 
